<svg width="21" height="21" viewBox="0 0 21 21" fill="none" xmlns="http://www.w3.org/2000/svg">
<path d="M7.90004 20.5271V13.6001H5.75016V10.4167H7.90004V9.0451C7.90004 5.49942 9.50417 3.85764 12.9833 3.85764C13.642 3.85764 14.7791 3.98669 15.2461 4.11574V6.99942C15.0001 6.97454 14.5707 6.9618 14.0418 6.9618C12.3334 6.9618 11.6749 7.60764 11.6749 9.29104V10.4167H15.0795L14.4961 13.5996H11.6796V20.758C16.8372 20.1332 20.8333 15.7417 20.8333 10.4167C20.8333 4.66377 16.1696 0 10.4167 0C4.66377 0 0 4.66377 0 10.4167C0 15.302 3.36264 19.4014 7.90004 20.5271Z" fill="#F8F6F2"/>
</svg>
