<svg width="14" height="14" viewBox="0 0 14 14" fill="none" xmlns="http://www.w3.org/2000/svg">
<path d="M5.05603 13.1373V8.70407H3.6801V6.66667H5.05603V5.78887C5.05603 3.51963 6.08267 2.46889 8.30933 2.46889C8.73087 2.46889 9.4586 2.55148 9.75753 2.63407V4.47963C9.60007 4.46371 9.32527 4.45555 8.98673 4.45555C7.8934 4.45555 7.47193 4.86889 7.47193 5.94627V6.66667H9.65087L9.27753 8.70373H7.47493V13.2851C10.7758 12.8853 13.3333 10.0747 13.3333 6.66667C13.3333 2.98481 10.3485 0 6.66667 0C2.98481 0 0 2.98481 0 6.66667C0 9.79327 2.15209 12.4169 5.05603 13.1373Z" fill="black"/>
</svg>
