<svg width="83" height="11" viewBox="0 0 83 11" fill="none" xmlns="http://www.w3.org/2000/svg">
<path d="M5.17037 0.154885C5.26928 -0.051631 5.56405 -0.0516256 5.66296 0.154885L7.09312 3.14062C7.13294 3.22375 7.21224 3.28115 7.30378 3.29318L10.5957 3.72545C10.8234 3.75536 10.9145 4.03528 10.7479 4.1929L8.34015 6.46977C8.27304 6.53326 8.2427 6.62626 8.25955 6.71694L8.8641 9.96916C8.90592 10.1943 8.66742 10.3672 8.4656 10.2581L5.54677 8.67994C5.46563 8.63606 5.3677 8.63606 5.28656 8.67994L2.36774 10.2581C2.16593 10.3672 1.92741 10.1943 1.96925 9.96916L2.57377 6.71694C2.59062 6.62626 2.56029 6.53326 2.49319 6.46977L0.085462 4.1929C-0.0812089 4.03528 0.0099266 3.75536 0.237643 3.72545L3.52953 3.29318C3.62111 3.28115 3.70038 3.22375 3.7402 3.14062L5.17037 0.154885Z" fill="#FF8929"/>
<path d="M23.1704 0.154885C23.2693 -0.051631 23.5641 -0.0516256 23.663 0.154885L25.0931 3.14062C25.1329 3.22375 25.2122 3.28115 25.3038 3.29318L28.5957 3.72545C28.8234 3.75536 28.9145 4.03528 28.7479 4.1929L26.3401 6.46978C26.273 6.53326 26.2427 6.62626 26.2595 6.71694L26.8641 9.96916C26.9059 10.1943 26.6674 10.3672 26.4656 10.2581L23.5468 8.67994C23.4656 8.63606 23.3677 8.63606 23.2866 8.67994L20.3677 10.2581C20.1659 10.3672 19.9274 10.1943 19.9693 9.96916L20.5738 6.71694C20.5906 6.62626 20.5603 6.53326 20.4932 6.46978L18.0855 4.1929C17.9188 4.03528 18.0099 3.75536 18.2376 3.72545L21.5295 3.29318C21.6211 3.28115 21.7004 3.22375 21.7402 3.14062L23.1704 0.154885Z" fill="#FF8929"/>
<path d="M41.1704 0.154885C41.2693 -0.051631 41.5641 -0.0516256 41.663 0.154885L43.0931 3.14062C43.1329 3.22375 43.2122 3.28115 43.3038 3.29318L46.5957 3.72545C46.8234 3.75536 46.9145 4.03528 46.7479 4.1929L44.3401 6.46978C44.273 6.53326 44.2427 6.62626 44.2595 6.71694L44.8641 9.96916C44.9059 10.1943 44.6674 10.3672 44.4656 10.2581L41.5468 8.67994C41.4656 8.63606 41.3677 8.63606 41.2866 8.67994L38.3677 10.2581C38.1659 10.3672 37.9274 10.1943 37.9693 9.96916L38.5738 6.71694C38.5906 6.62626 38.5603 6.53326 38.4932 6.46978L36.0855 4.1929C35.9188 4.03528 36.0099 3.75536 36.2376 3.72545L39.5295 3.29318C39.6211 3.28115 39.7004 3.22375 39.7402 3.14062L41.1704 0.154885Z" fill="#FF8929"/>
<path d="M59.1704 0.154885C59.2693 -0.051631 59.5641 -0.0516256 59.663 0.154885L61.0931 3.14062C61.1329 3.22375 61.2122 3.28115 61.3038 3.29318L64.5957 3.72545C64.8234 3.75536 64.9145 4.03528 64.7479 4.1929L62.3401 6.46978C62.273 6.53326 62.2427 6.62626 62.2595 6.71694L62.8641 9.96916C62.9059 10.1943 62.6674 10.3672 62.4656 10.2581L59.5468 8.67994C59.4656 8.63606 59.3677 8.63606 59.2866 8.67994L56.3677 10.2581C56.1659 10.3672 55.9274 10.1943 55.9693 9.96916L56.5738 6.71694C56.5906 6.62626 56.5603 6.53326 56.4932 6.46978L54.0855 4.1929C53.9188 4.03528 54.0099 3.75536 54.2376 3.72545L57.5295 3.29318C57.6211 3.28115 57.7004 3.22375 57.7402 3.14062L59.1704 0.154885Z" fill="#FF8929"/>
<path d="M77.1704 0.154885C77.2693 -0.051631 77.5641 -0.0516256 77.663 0.154885L79.0931 3.14062C79.1329 3.22375 79.2122 3.28115 79.3038 3.29318L82.5957 3.72545C82.8234 3.75536 82.9145 4.03528 82.7479 4.1929L80.3401 6.46978C80.273 6.53326 80.2427 6.62626 80.2596 6.71694L80.8641 9.96916C80.9059 10.1943 80.6674 10.3672 80.4656 10.2581L77.5468 8.67994C77.4656 8.63606 77.3677 8.63606 77.2866 8.67994L74.3677 10.2581C74.1659 10.3672 73.9274 10.1943 73.9693 9.96916L74.5738 6.71694C74.5906 6.62626 74.5603 6.53326 74.4932 6.46978L72.0855 4.1929C71.9188 4.03528 72.0099 3.75536 72.2376 3.72545L75.5295 3.29318C75.6211 3.28115 75.7004 3.22375 75.7402 3.14062L77.1704 0.154885Z" fill="#FF8929"/>
</svg>
